<?xml version="1.0" encoding="utf-8"?>
<!-- Generator: Adobe Illustrator 21.0.2, SVG Export Plug-In . SVG Version: 6.00 Build 0)  -->
<svg version="1.1" id="Layer_1" xmlns="http://www.w3.org/2000/svg" xmlns:xlink="http://www.w3.org/1999/xlink" x="0px" y="0px"
	 viewBox="0 0 626 199.3" style="enable-background:new 0 0 626 199.3;" xml:space="preserve">
<style type="text/css">
	.st0{fill:#606062;}
	.st1{fill:#61A844;}
	.st2{fill:#ACAFAE;}
</style>
<g>
	<path class="st0" d="M339.5,104.9c-2.5-4.1,0.9-7.6,0.9-7.6l29.4-30.4c3.4-3.5-1.5-3.5-1.5-3.5h-27.5c-4.8,0-8.1,3.5-8.1,3.5
		l-27.3,28.9c-3.3,3.5-3.3-1.3-3.3-1.3V31.4c0-4.8-4.8-4.8-4.8-4.8h-20.8c-4.6,0-4.6,4.6-4.6,4.6v132.2c0,4.8,4.8,4.8,4.8,4.8h20.6
		c4.6,0,4.6-4.6,4.6-4.6v-23.2c0-4.8,3.5-8.1,3.5-8.1l9.7-9.1l24.4,41c2.5,4.1,7.3,4.1,7.3,4.1h26.1c4.8,0,2.3-4.1,2.3-4.1
		L339.5,104.9L339.5,104.9z M250.1,163.3V68.1c0-4.8-4.8-4.8-4.8-4.8h-20.8c-4.8,0-4.8,4.8-4.8,4.8v95.3c0,4.8,4.8,4.8,4.8,4.8h20.8
		C250.1,168.2,250.1,163.3,250.1,163.3L250.1,163.3z M249.4,44.8V31.1c0,0,0-4.6-4.6-4.6h-20.4c0,0-4.6,0-4.6,4.6v13.6
		c0,0,0,4.6,4.6,4.6h20.4C244.7,49.4,249.4,49.4,249.4,44.8L249.4,44.8z M197.2,163.3v-132c0-4.8-4.8-4.8-4.8-4.8h-21.2
		c-4.8,0-4.8,4.8-4.8,4.8v132c0,4.8,4.8,4.8,4.8,4.8h21.2C197.2,168.2,197.2,163.3,197.2,163.3L197.2,163.3z M149.4,157.7
		c0,0,2.7-3.1-0.4-5.8L132,137c7.7-11.3,12.1-25,12.1-39.7c0-39.1-31.7-70.9-70.9-70.9c-39.1,0-70.9,31.7-70.9,70.9
		c0,39.1,31.7,70.9,70.9,70.9c14.3,0,27.6-4.3,38.8-11.6l18.7,16.3c0,0,3.1,2.7,5.8-0.4L149.4,157.7L149.4,157.7z M114.1,97.4
		c0,22.6-18.3,40.9-40.9,40.9c-22.6,0-40.9-18.3-40.9-40.9c0-22.6,18.3-40.9,40.9-40.9C95.8,56.4,114.1,74.8,114.1,97.4L114.1,97.4z
		"/>
	<path class="st1" d="M608.3,167.4l-25.9-21.7c9-14.3,14.3-31.2,14.3-49.3c0-51-41.4-92.4-92.4-92.4c-51,0-92.4,41.4-92.4,92.4
		c0,51,41.4,92.4,92.4,92.4c19.8,0,38.1-6.2,53.2-16.8l27.6,23.1c0,0,4.1,3.4,7.5-0.7l16.4-19.5C609,174.9,612.4,170.8,608.3,167.4
		L608.3,167.4z M561.1,96.4c0,31.4-25.4,56.8-56.8,56.8c-31.4,0-56.8-25.4-56.8-56.8c0-31.4,25.4-56.8,56.8-56.8
		C535.7,39.6,561.1,65,561.1,96.4L561.1,96.4z"/>
	<path class="st0" d="M467.9,96.4c0-20.1,16.3-36.4,36.4-36.4c20.1,0,36.4,16.3,36.4,36.4c0,20.1-16.3,36.4-36.4,36.4
		C484.2,132.8,467.9,116.5,467.9,96.4L467.9,96.4z"/>
</g>
<g>
	<path class="st2" d="M605.5,33.6c0-4.9,4-8.9,8.9-8.9c4.9,0,8.9,4,8.9,8.9c0,4.9-4,8.9-8.9,8.9C609.5,42.5,605.5,38.5,605.5,33.6z
		 M614.3,26c-4.2,0-7.4,3.4-7.4,7.7c0,4.3,3.2,7.7,7.4,7.7c4.2,0,7.4-3.4,7.4-7.7C621.8,29.4,618.6,26,614.3,26z M612.3,39h-1.2
		V28.2h3.9c1.9,0,3.3,0.9,3.3,3c0,1.7-0.9,2.8-2.6,3l3,4.8h-1.5l-2.9-4.8h-2.2V39z M612.3,33.2h2.4c1.4,0,2.4-0.3,2.4-2
		c0-1.4-1.1-1.9-2.4-1.9h-2.4V33.2z"/>
</g>
</svg>
