<?xml version="1.0" encoding="utf-8"?>
<!-- Generator: Adobe Illustrator 17.0.2, SVG Export Plug-In . SVG Version: 6.00 Build 0)  -->
<!DOCTYPE svg PUBLIC "-//W3C//DTD SVG 1.1//EN" "http://www.w3.org/Graphics/SVG/1.1/DTD/svg11.dtd">
<svg version="1.1" id="Laag_1" xmlns="http://www.w3.org/2000/svg" xmlns:xlink="http://www.w3.org/1999/xlink" x="0px" y="0px"
	 width="208px" height="55px" viewBox="0 0 208 55" enable-background="new 0 0 208 55" xml:space="preserve">
<g>
	<g>
		<g>
			<path fill="#FFFFFF" d="M75.715,19.734c-3.57,3.494-6.786,6.988-10.237,10.481c-3.452,3.493-6.427,6.987-8.928,10.058
				c-1.905-0.108-3.57-0.265-5.833-0.265c-1.785,0-3.808,0.158-5.951,0.265c-3.928-4.818-8.928-9.529-13.214-14.292
				c-2.618-2.911-5.833-5.771-8.571-8.628c-1.667,3.864-2.737,7.781-3.81,11.698c-1.189,4.552-2.141,8.363-2.379,11.381
				c-2.381-0.319-4.762-0.477-7.381-0.477s-5.237,0.211-7.856,0.477c3.214-5.347,5.357-10.745,7.618-16.145
				c2.619-6.194,4.88-13.287,5.953-19.637l0.357-2.119c3.572,0.371,7.262,0.478,10.952,0.478c3.928,0,7.261-0.107,11.071-0.478
				c4.286,5.559,15.356,16.833,21.547,22.603C65.954,17.829,74.048,9.836,79.881,2.53c3.453,0.371,7.023,0.478,10.595,0.478
				c3.69,0,7.5-0.054,11.19-0.478l1.429,6.83c1.785,8.31,6.547,25.408,9.88,31.071c-5-0.266-9.642-0.477-14.523-0.477
				c-4.762,0-9.642,0.211-14.165,0.477c-0.714-4.553-1.667-9.105-2.739-13.656c-0.833-3.441-2.023-7.306-2.975-9.847L75.715,19.734z
				"/>
		</g>
		<g>
			<path fill="#FFFFFF" d="M196.806,12.533c-2.495-3.758-11.443-5.716-21.712-5.716c-22.005,0-28.168,7.093-28.608,13.762
				c0,6.988,3.962,15.192,28.167,15.192c13.497,0,21.419-2.541,27.873-4.605l4.548,0.9c-1.76,2.064-3.373,4.129-4.694,6.246
				c-8.509,1.112-19.512,2.541-34.182,2.541c-31.394,0-56.482-7.252-56.482-19.056C111.717,9.093,138.417,2,171.867,2
				c11.736,0,24.352,1.059,35.208,2.594c-0.585,1.217-1.614,2.381-2.347,3.546c-0.881,1.481-1.467,2.911-2.055,4.393H196.806z"/>
		</g>
	</g>
	<g>
		<path fill="#FFFFFF" d="M20.844,48.543c-0.957,0.7-1.816,1.401-2.74,2.099c-0.922,0.701-1.719,1.401-2.388,2.015
			c-0.509-0.021-0.955-0.053-1.561-0.053c-0.478,0-1.018,0.032-1.591,0.053c-1.052-0.965-2.389-1.907-3.536-2.861
			c-0.7-0.584-1.561-1.156-2.293-1.728c-0.446,0.774-0.733,1.558-1.02,2.343c-0.319,0.911-0.573,1.673-0.637,2.279
			c-0.637-0.065-1.273-0.096-1.975-0.096c-0.7,0-1.401,0.043-2.102,0.096c0.86-1.071,1.433-2.152,2.038-3.233
			c0.701-1.24,1.306-2.661,1.593-3.932L4.727,45.1c0.955,0.074,1.943,0.094,2.93,0.094c1.052,0,1.943-0.02,2.963-0.094
			c1.146,1.111,4.109,3.368,5.765,4.525c1.848-1.462,4.014-3.063,5.573-4.525c0.924,0.074,1.879,0.094,2.834,0.094
			c0.988,0,2.008-0.01,2.994-0.094l0.382,1.366c0.478,1.666,1.752,5.089,2.643,6.223c-1.337-0.053-2.579-0.096-3.885-0.096
			c-1.273,0-2.579,0.043-3.79,0.096c-0.191-0.912-0.446-1.824-0.733-2.735c-0.222-0.689-0.542-1.463-0.796-1.972L20.844,48.543z"/>
		<path fill="#FFFFFF" d="M33.902,45.1c1.401,0.063,2.579,0.094,3.981,0.094c1.37,0,2.643-0.02,3.95-0.094
			c-0.445,0.899-0.445,3.019-0.445,3.656c0,1.546,0,2.744,4.872,2.744c1.53,0,3.154-0.232,3.886-0.698
			c0.605-0.382,0.636-0.743,0.669-1.219c0.032-0.509,0.032-1.019,0.032-1.526c0-0.891-0.096-1.877-0.382-2.957
			c0.828,0.041,1.657,0.094,2.484,0.094c0.797,0,1.497-0.041,2.23-0.094c-0.286,1.303-0.446,3.179-0.446,3.911
			c0,1.26-0.222,1.991-2.102,2.723c-1.848,0.71-4.778,1.049-8.121,1.049c-6.879,0-10.256-0.996-10.256-3.296
			C34.253,47.728,34.253,46.351,33.902,45.1z"/>
		<path fill="#FFFFFF" d="M74.638,51.49c-0.064,0.158-0.16,0.361-0.16,0.615c0,0.201,0.065,0.404,0.16,0.584
			c-2.676-0.074-4.651-0.096-6.721-0.096c-2.261,0-5.414,0.022-8.568,0.096c0.478-0.828,0.478-1.855,0.478-2.513
			c0-1.356-0.063-2.161-0.158-3.147c-0.065-0.646-0.065-1.377-0.287-1.928c1.338,0.063,2.706,0.094,4.077,0.094
			c1.306,0,2.484-0.02,3.758-0.094c-0.256,0.911-0.318,3.402-0.318,4.111c0,0.381,0.063,2.066,0.063,2.406
			C67.822,51.617,72.631,51.596,74.638,51.49z"/>
		<path fill="#FFFFFF" d="M72.408,46.308c0.127-0.191,0.191-0.382,0.191-0.604c0-0.18-0.095-0.371-0.191-0.603
			c3.154,0.094,6.338,0.094,9.523,0.094c3.025,0,6.244,0,9.587-0.094c-0.064,0.168-0.191,0.38-0.191,0.645
			c0,0.213,0.095,0.424,0.191,0.562c-1.943-0.065-3.918-0.106-5.924-0.106c-0.064,0.625-0.095,1.547-0.095,2.279
			c0,1.642,0.031,2.83,0.286,4.208c-2.197-0.074-3.408-0.096-3.981-0.096c-1.783,0-2.994,0.064-3.694,0.096
			c0.382-1.04,0.349-2.968,0.349-4.05c0-0.498-0.031-1.495-0.127-2.437C76.326,46.202,74.352,46.233,72.408,46.308z"/>
		<path fill="#FFFFFF" d="M101.456,49.17c0,1.176,0.031,2.522,0.318,3.519c-1.179-0.065-2.643-0.096-3.981-0.096
			c-1.37,0-2.739,0.053-3.791,0.096c0.224-1.167,0.32-2.331,0.32-3.498c0-0.573-0.064-1.77-0.064-2.342
			c0-0.498-0.096-1.166-0.256-1.748c1.115,0.041,2.708,0.094,3.887,0.094c1.306,0,2.801-0.041,3.917-0.094
			c-0.223,0.995-0.349,2.002-0.349,3.01V49.17z"/>
		<path fill="#FFFFFF" d="M123.783,47.113c-0.542-0.753-2.486-1.145-4.713-1.145c-4.778,0-6.116,1.42-6.211,2.757
			c0,1.398,0.86,3.041,6.116,3.041c2.93,0,4.65-0.509,6.051-0.922l0.987,0.18c-0.382,0.413-0.732,0.827-1.02,1.251
			c-1.846,0.222-4.236,0.508-7.42,0.508c-6.817,0-12.264-1.452-12.264-3.815c0-2.543,5.797-3.964,13.059-3.964
			c2.548,0,5.287,0.211,7.644,0.519c-0.127,0.243-0.35,0.476-0.509,0.71c-0.191,0.297-0.32,0.584-0.447,0.88H123.783z"/>
		<path fill="#FFFFFF" d="M141.554,50.219c0,0.827,0.129,1.654,0.415,2.47c-1.53-0.085-2.772-0.096-3.823-0.096
			c-1.306,0-2.58,0.043-3.886,0.096c0.223-1.019,0.319-2.639,0.319-3.063c0-0.107-0.255-0.265-0.701-0.551
			c-1.083-0.699-2.134-1.389-3.345-2.099c-1.082-0.636-2.134-1.25-3.216-1.875c1.56,0.074,3.121,0.094,4.523,0.094
			c1.369,0,2.93-0.02,4.014-0.094c0.796,0.741,1.497,1.207,4.331,3.094c1.498-1.007,2.897-2.035,4.045-3.094
			c0.7,0.041,1.433,0.094,2.166,0.094c0.796,0,1.655-0.041,2.229-0.094c-2.42,1.281-4.491,2.618-6.561,3.942l-0.446,0.286
			C141.585,49.625,141.554,49.922,141.554,50.219z"/>
		<path fill="#FFFFFF" d="M166.843,47.113c-0.542-0.753-2.484-1.145-4.713-1.145c-4.778,0-6.115,1.42-6.211,2.757
			c0,1.398,0.86,3.041,6.115,3.041c2.931,0,4.65-0.509,6.051-0.922l0.988,0.18c-0.382,0.413-0.732,0.827-1.02,1.251
			c-1.847,0.222-4.235,0.508-7.421,0.508c-6.815,0-12.262-1.452-12.262-3.815c0-2.543,5.796-3.964,13.057-3.964
			c2.549,0,5.288,0.211,7.645,0.519c-0.128,0.243-0.351,0.476-0.51,0.71c-0.191,0.297-0.318,0.584-0.445,0.88H166.843z"/>
		<path fill="#FFFFFF" d="M187.641,51.49c-0.064,0.158-0.159,0.361-0.159,0.615c0,0.201,0.064,0.404,0.159,0.584
			c-2.676-0.074-4.651-0.096-6.721-0.096c-2.261,0-5.413,0.022-8.568,0.096c0.478-0.828,0.478-1.855,0.478-2.513
			c0-1.356-0.063-2.161-0.158-3.147c-0.065-0.646-0.065-1.377-0.286-1.928c1.337,0.063,2.706,0.094,4.076,0.094
			c1.306,0,2.484-0.02,3.758-0.094c-0.255,0.911-0.32,3.402-0.32,4.111c0,0.381,0.065,2.066,0.065,2.406
			C180.824,51.617,185.634,51.596,187.641,51.49z"/>
		<path fill="#FFFFFF" d="M198.215,51.617h2.231c1.209,0,4.458-0.053,5.86-0.074c-0.064,0.201-0.16,0.404-0.16,0.605
			c0,0.179,0.065,0.37,0.16,0.541c-2.582-0.074-5.16-0.096-7.708-0.096c-2.579,0-5.191,0.022-7.772,0.096
			c0.192-0.732,0.255-1.028,0.255-3.699c0-2.226-0.095-2.735-0.318-3.889c2.197,0.053,4.427,0.094,6.624,0.094
			c2.453,0,6.657-0.01,8.919-0.094c-0.064,0.19-0.16,0.37-0.16,0.561c0,0.201,0.096,0.392,0.16,0.593
			c-1.593-0.032-3.186-0.074-4.747-0.074h-3.344v2.078c1.051,0,4.205-0.033,7.803-0.108c-0.095,0.192-0.159,0.372-0.159,0.562
			c0,0.181,0.096,0.392,0.159,0.573c-2.581-0.064-4.491-0.096-7.803-0.096V51.617z"/>
	</g>
</g>
<g>
</g>
<g>
</g>
<g>
</g>
<g>
</g>
<g>
</g>
<g>
</g>
</svg>
